<?xml version="1.0" encoding="UTF-8" standalone="no"?>
<!DOCTYPE svg PUBLIC "-//W3C//DTD SVG 1.1//EN"
 "http://www.w3.org/Graphics/SVG/1.1/DTD/svg11.dtd">
<!-- Generated by graphviz version 2.50.0 (0)
 -->
<!-- Title: G Pages: 1 -->
<svg width="381pt" height="364pt"
 viewBox="0.00 0.00 380.99 364.13" xmlns="http://www.w3.org/2000/svg" xmlns:xlink="http://www.w3.org/1999/xlink">
<g id="graph0" class="graph" transform="scale(1 1) rotate(0) translate(4 360.13)">
<title>G</title><style>.edge>path:hover{stroke-width:8}</style>
<polygon fill="white" stroke="transparent" points="-4,4 -4,-360.13 376.99,-360.13 376.99,4 -4,4"/>
<!-- func_preprocess -->
<g id="node1" class="node">
<title>func_preprocess</title><style>.edge>path:hover{stroke-width:8}</style>
<ellipse fill="#e61919" stroke="black" cx="56.51" cy="-334.92" rx="56.52" ry="18"/>
<text text-anchor="middle" x="56.51" y="-332.42" font-family="Helvetica,sans-Serif" font-size="10.00" fill="#ffffff">func_preprocess</text>
</g>
<!-- func_preprocess__version -->
<g id="node2" class="node">
<title>func_preprocess__version</title><style>.edge>path:hover{stroke-width:8}</style>
<ellipse fill="#ce3b3b" stroke="black" cx="79.51" cy="-256.49" rx="70.01" ry="21.43"/>
<text text-anchor="middle" x="79.51" y="-259.49" font-family="Helvetica,sans-Serif" font-size="10.00" fill="#ffffff">func_preprocess.</text>
<text text-anchor="middle" x="79.51" y="-248.49" font-family="Helvetica,sans-Serif" font-size="10.00" fill="#ffffff">_version</text>
</g>
<!-- func_preprocess__version&#45;&gt;func_preprocess -->
<g id="edge1" class="edge">
<title>func_preprocess__version&#45;&gt;func_preprocess</title><style>.edge>path:hover{stroke-width:8}</style>
<path fill="none" stroke="black" d="M73.35,-277.97C70.69,-286.81 67.54,-297.26 64.69,-306.73"/>
<polygon fill="#ce3b3b" stroke="black" points="61.29,-305.91 61.76,-316.49 67.99,-307.93 61.29,-305.91"/>
</g>
<!-- func_preprocess_cli -->
<g id="node3" class="node">
<title>func_preprocess_cli</title><style>.edge>path:hover{stroke-width:8}</style>
<ellipse fill="#9d4343" stroke="black" cx="201.51" cy="-334.92" rx="70.01" ry="21.43"/>
<text text-anchor="middle" x="201.51" y="-337.92" font-family="Helvetica,sans-Serif" font-size="10.00" fill="#ffffff">func_preprocess.</text>
<text text-anchor="middle" x="201.51" y="-326.92" font-family="Helvetica,sans-Serif" font-size="10.00" fill="#ffffff">cli</text>
</g>
<!-- func_preprocess__version&#45;&gt;func_preprocess_cli -->
<g id="edge2" class="edge">
<title>func_preprocess__version&#45;&gt;func_preprocess_cli</title><style>.edge>path:hover{stroke-width:8}</style>
<path fill="none" stroke="black" d="M108.73,-275.8C125.06,-286.03 145.6,-298.9 163.21,-309.92"/>
<polygon fill="#ce3b3b" stroke="black" points="161.77,-313.15 172.11,-315.5 165.49,-307.22 161.77,-313.15"/>
</g>
<!-- func_preprocess_helper_tools -->
<g id="node4" class="node">
<title>func_preprocess_helper_tools</title><style>.edge>path:hover{stroke-width:8}</style>
<ellipse fill="#c43131" stroke="black" cx="287.51" cy="-99.64" rx="70.01" ry="21.43"/>
<text text-anchor="middle" x="287.51" y="-102.64" font-family="Helvetica,sans-Serif" font-size="10.00" fill="#ffffff">func_preprocess.</text>
<text text-anchor="middle" x="287.51" y="-91.64" font-family="Helvetica,sans-Serif" font-size="10.00" fill="#ffffff">helper_tools</text>
</g>
<!-- func_preprocess_preprocess -->
<g id="node5" class="node">
<title>func_preprocess_preprocess</title><style>.edge>path:hover{stroke-width:8}</style>
<ellipse fill="#b03a3a" stroke="black" cx="287.51" cy="-178.07" rx="70.01" ry="21.43"/>
<text text-anchor="middle" x="287.51" y="-181.07" font-family="Helvetica,sans-Serif" font-size="10.00" fill="#ffffff">func_preprocess.</text>
<text text-anchor="middle" x="287.51" y="-170.07" font-family="Helvetica,sans-Serif" font-size="10.00" fill="#ffffff">preprocess</text>
</g>
<!-- func_preprocess_helper_tools&#45;&gt;func_preprocess_preprocess -->
<g id="edge3" class="edge">
<title>func_preprocess_helper_tools&#45;&gt;func_preprocess_preprocess</title><style>.edge>path:hover{stroke-width:8}</style>
<path fill="none" stroke="black" d="M287.51,-121.12C287.51,-128.98 287.51,-138.12 287.51,-146.71"/>
<polygon fill="#c43131" stroke="black" points="284.01,-146.79 287.51,-156.79 291.01,-146.79 284.01,-146.79"/>
</g>
<!-- func_preprocess_workflows -->
<g id="node7" class="node">
<title>func_preprocess_workflows</title><style>.edge>path:hover{stroke-width:8}</style>
<ellipse fill="#b03a3a" stroke="black" cx="287.51" cy="-256.49" rx="70.01" ry="21.43"/>
<text text-anchor="middle" x="287.51" y="-259.49" font-family="Helvetica,sans-Serif" font-size="10.00" fill="#ffffff">func_preprocess.</text>
<text text-anchor="middle" x="287.51" y="-248.49" font-family="Helvetica,sans-Serif" font-size="10.00" fill="#ffffff">workflows</text>
</g>
<!-- func_preprocess_helper_tools&#45;&gt;func_preprocess_workflows -->
<g id="edge4" class="edge">
<title>func_preprocess_helper_tools&#45;&gt;func_preprocess_workflows</title><style>.edge>path:hover{stroke-width:8}</style>
<path fill="none" stroke="black" d="M325.35,-117.6C341.09,-126.79 357.72,-139.8 366.51,-156.85 375.16,-173.61 375.16,-182.52 366.51,-199.28 359.3,-213.27 346.81,-224.54 333.87,-233.21"/>
<polygon fill="#c43131" stroke="black" points="331.97,-230.27 325.35,-238.54 335.68,-236.2 331.97,-230.27"/>
</g>
<!-- func_preprocess_preprocess&#45;&gt;func_preprocess_workflows -->
<g id="edge5" class="edge">
<title>func_preprocess_preprocess&#45;&gt;func_preprocess_workflows</title><style>.edge>path:hover{stroke-width:8}</style>
<path fill="none" stroke="black" d="M287.51,-199.55C287.51,-207.41 287.51,-216.55 287.51,-225.14"/>
<polygon fill="#b03a3a" stroke="black" points="284.01,-225.22 287.51,-235.22 291.01,-225.22 284.01,-225.22"/>
</g>
<!-- func_preprocess_submit -->
<g id="node6" class="node">
<title>func_preprocess_submit</title><style>.edge>path:hover{stroke-width:8}</style>
<ellipse fill="#db2f2f" stroke="black" cx="238.51" cy="-21.21" rx="70.01" ry="21.43"/>
<text text-anchor="middle" x="238.51" y="-24.21" font-family="Helvetica,sans-Serif" font-size="10.00" fill="#ffffff">func_preprocess.</text>
<text text-anchor="middle" x="238.51" y="-13.21" font-family="Helvetica,sans-Serif" font-size="10.00" fill="#ffffff">submit</text>
</g>
<!-- func_preprocess_submit&#45;&gt;func_preprocess_cli -->
<g id="edge6" class="edge">
<title>func_preprocess_submit&#45;&gt;func_preprocess_cli</title><style>.edge>path:hover{stroke-width:8}</style>
<path fill="none" stroke="black" d="M217.45,-41.48C204.17,-55.79 189.51,-76.57 189.51,-98.64"/>
<path fill="none" stroke="black" d="M189.51,-100.64C189.51,-173.51 195.42,-259.01 198.95,-303.51"/>
<polygon fill="#db2f2f" stroke="black" points="195.47,-303.97 199.77,-313.65 202.45,-303.41 195.47,-303.97"/>
</g>
<!-- func_preprocess_submit&#45;&gt;func_preprocess_helper_tools -->
<g id="edge7" class="edge">
<title>func_preprocess_submit&#45;&gt;func_preprocess_helper_tools</title><style>.edge>path:hover{stroke-width:8}</style>
<path fill="none" stroke="black" d="M251.39,-42.29C256.84,-50.81 263.3,-60.88 269.24,-70.14"/>
<polygon fill="#db2f2f" stroke="black" points="266.38,-72.16 274.72,-78.69 272.27,-68.39 266.38,-72.16"/>
</g>
<!-- func_preprocess_submit&#45;&gt;func_preprocess_preprocess -->
<g id="edge8" class="edge">
<title>func_preprocess_submit&#45;&gt;func_preprocess_preprocess</title><style>.edge>path:hover{stroke-width:8}</style>
<path fill="none" stroke="black" d="M189.51,-100.64C189.51,-126.45 210.91,-144.83 233.71,-157.08"/>
<polygon fill="#db2f2f" stroke="black" points="232.3,-160.29 242.81,-161.64 235.44,-154.03 232.3,-160.29"/>
</g>
<!-- func_preprocess_workflows&#45;&gt;func_preprocess_cli -->
<g id="edge9" class="edge">
<title>func_preprocess_workflows&#45;&gt;func_preprocess_cli</title><style>.edge>path:hover{stroke-width:8}</style>
<path fill="none" stroke="black" d="M265.81,-276.78C255.22,-286.19 242.32,-297.65 230.86,-307.84"/>
<polygon fill="#b03a3a" stroke="black" points="228.36,-305.38 223.21,-314.64 233.01,-310.61 228.36,-305.38"/>
</g>
</g>
</svg>
